<?xml version="1.0" encoding="UTF-8" standalone="no"?><!DOCTYPE svg PUBLIC "-//W3C//DTD SVG 1.1//EN" "http://www.w3.org/Graphics/SVG/1.1/DTD/svg11.dtd"><svg width="100%" height="100%" viewBox="0 0 678 587" version="1.1" xmlns="http://www.w3.org/2000/svg" xmlns:xlink="http://www.w3.org/1999/xlink" xml:space="preserve" xmlns:serif="http://www.serif.com/" style="fill-rule:evenodd;clip-rule:evenodd;stroke-linejoin:round;stroke-miterlimit:1.41421;"><path d="M460.2,393.9l39.8,-212.9l-42.1,0l-43.8,212.9l46.1,0Zm-110,-177.5l-5.8,30.9l-18.4,0l-5.9,32.7l18.1,0l-11.1,58.4c-2.1,11.1 -2.9,19.2 -2.9,27.3c0,18.3 12,31.5 37.2,31.5c9.1,0 19.6,-1.2 24.9,-3.3l5,-33.9c-3.8,0.6 -7.9,0.6 -11.7,0.6c-9.1,0 -12,-5.1 -12,-12.3c0,-5.1 1.2,-12.6 2.3,-18.6l9.7,-49.8l30.4,0l6.1,-32.7l-30.4,0l7.6,-41.1l-43.1,10.3Zm-90.6,71.6c0,13.2 -16.4,18 -49.2,17.7c2.9,-13.8 14.1,-30.3 33.7,-30.3c9.6,0 15.5,5.1 15.5,12.6m18.7,66.3c-11.4,5.7 -24.6,9.3 -40.1,9.3c-12.3,0 -22,-3.9 -27.5,-11.4c-2.9,-4.2 -4.4,-10.8 -4.4,-15c57.4,1.5 92.8,-12 92.8,-49.5c0,-27.3 -20.8,-43.8 -49.7,-43.8c-51.8,0 -83.4,46.5 -83.4,91.1c0,38.1 21.1,61.8 62,61.8c15.8,0 36.6,-2.7 53.3,-11.4l-3,-31.1Z" style="fill:#fff;fill-rule:nonzero;"/><path d="M481.298,142.329l-165.915,-131.319l-26.748,33.795l165.915,131.319l26.748,-33.795Z" style="fill:#fff;"/><path d="M351,535.7c-202.8,-38.6 -338.9,-218.2 -304.1,-401.1c9.6,-50.5 31.3,-96 61.9,-134.6c-52.5,45.9 -89.8,107 -103.3,178c-34.9,182.9 101.3,362.5 304.1,401.1c146.8,27.9 288.2,-25.6 368.4,-126.7c-82.7,72.4 -202.9,107 -327,83.3Z" style="fill:#fff;fill-rule:nonzero;"/></svg>